<svg version="1.1" xmlns="http://www.w3.org/2000/svg" xmlns:xlink="http://www.w3.org/1999/xlink" width="149.79039" height="149.7904" viewBox="0,0,149.79039,149.7904"><g transform="translate(-165.10481,-105.1048)"><g data-paper-data="{&quot;isPaintingLayer&quot;:true}" fill-rule="nonzero" stroke="none" stroke-width="0" stroke-linecap="butt" stroke-linejoin="miter" stroke-miterlimit="10" stroke-dasharray="" stroke-dashoffset="0" style="mix-blend-mode: normal"><path d="M278.65317,131.29761h-69.87591c-9.64786,0 -17.46898,7.81794 -17.46898,17.46188v69.84748h-8.73448c-9.64786,0 -17.46898,-7.81794 -17.46898,-17.46188v-78.57842c0,-9.64393 7.82113,-17.46188 17.46898,-17.46188h78.61041c9.64786,0 17.46898,7.81794 17.46898,17.46188z" data-paper-data="{&quot;index&quot;:null}" fill="#3182ce"/><path d="M165.12131,192.46044h69.87591c9.64786,0 17.46898,-7.81794 17.46898,-17.46188v-69.84748h8.73448c9.64786,0 17.46898,7.81794 17.46898,17.46188v78.57842c0,9.64393 -7.82113,17.46188 -17.46898,17.46188h-78.61041c-9.64786,0 -17.46898,-7.81794 -17.46898,-17.46188z" data-paper-data="{&quot;index&quot;:null}" fill="#dd6b20"/><path d="M200.82011,159.6676c0,-9.56233 7.8574,-17.31411 17.55002,-17.31411h78.97505c9.69261,0 17.55002,7.75179 17.55002,17.31411v77.91349c0,9.56233 -7.8574,17.31411 -17.55002,17.31411h-8.775v-69.25644c0,-9.56233 -7.8574,-17.31411 -17.55002,-17.31411h-70.20005z" data-paper-data="{&quot;index&quot;:null}" fill="#e53e3e"/><path d="M314.8952,237.58109c0,9.56233 -7.8574,17.31411 -17.55002,17.31411h-78.97505c-9.69261,0 -17.55002,-7.75179 -17.55002,-17.31411v-77.91349c0,-9.56233 7.8574,-17.31411 17.55002,-17.31411h8.775v69.25644c0,9.56233 7.8574,17.31411 17.55002,17.31411h70.20005z" data-paper-data="{&quot;index&quot;:null}" fill="#38a169"/><path d="M165.12131,192.9638h69.87591c9.64786,0 35.85132,25.68945 26.20347,25.68945h-78.61041c-9.64786,0 -17.46898,-7.6677 -17.46898,-17.1263z" data-paper-data="{&quot;index&quot;:null}" fill="#dd6b20"/></g></g></svg>